<svg width="338" height="190" viewBox="0 0 338 190" fill="none" xmlns="http://www.w3.org/2000/svg">
<path d="M202.948 173.052L327.778 133.906C357.335 97.3482 279.359 109.952 232.55 121.774C230.951 122.178 229.389 122.581 227.868 122.981" stroke="black"/>
<path d="M108.057 171.125L7.14147 126.111C-15.5158 88.019 48.0593 104.225 86.0306 118.233C87.3274 118.711 88.5942 119.187 89.8268 119.658" stroke="black"/>
<path d="M94.1963 121.342C86.083 105.636 75.1506 66.4529 96.3274 35.3681C117.504 4.28336 154.34 1.96211 170.11 4.68708C202.618 11.4948 259.538 45.0156 227.155 124.638" stroke="black"/>
<path d="M124.457 66.2587C118.819 66.119 125.3 70.4636 124.377 66.901C124.315 66.6646 121.894 65.2086 123.936 66.5035C125.449 67.4632 124.118 69.2816 123.212 69.7067" stroke="black" stroke-width="3" stroke-linecap="round"/>
<path d="M123.27 67.389C117.112 68.0041 128.599 73.1216 123.769 68.0456C121.897 66.0789 117.153 70.7162 123.183 70.8657C128.204 70.9902 125.946 69.6947 124.441 66.9026C123.842 65.7917 116.302 67.2057 120.866 70.8083" stroke="black" stroke-width="3" stroke-linecap="round"/>
<path d="M183.591 66.5651C177.03 66.4024 180.944 72.5969 186.31 71.2065C186.849 71.0669 175.585 68.6859 184.692 68.9116" stroke="black" stroke-width="3" stroke-linecap="round"/>
<path d="M182.46 65.3774C182.357 69.5316 185.082 66.0597 186.775 68.0613C187.502 68.921 185.282 70.6214 184.892 71.2358C184.261 72.2314 184.885 69.6963 184.428 69.1628C183.18 67.7049 178.141 69.1886 182.689 66.5427C186.448 64.3564 188.41 66.6335 186.84 70.6399C183.693 78.6692 170.315 62.7571 182.518 63.0596C185.398 63.131 186.183 68.2282 184.021 69.9902C181.507 72.0389 177.77 70.9309 180.085 67.6378" stroke="black" stroke-width="3" stroke-linecap="round"/>
<path d="M125.444 73.2412C119.077 73.0834 119.932 66.1468 125.037 66.2734C131.884 66.4431 123.733 75.5151 121.123 70.8149C119.928 68.6636 120.807 65.5468 123.876 66.309C127.032 67.0928 125.946 74.628 123.072 75.3728C117.433 76.8338 116.284 68.3757 124.4 68.5768" stroke="black" stroke-width="3" stroke-linecap="round"/>
<path d="M144.571 96.9078C149.519 105.476 169.138 102.693 162.098 91.5442" stroke="black" stroke-width="3" stroke-linecap="round"/>
<path d="M138.728 145.467C133.584 137.936 123.28 141.264 121.475 150.193C119.829 158.333 123.9 161.778 131.309 164.095C141.798 167.375 152.021 170.585 151.687 184.056" stroke="black" stroke-width="3" stroke-linecap="round"/>
<path d="M139.916 144.337C139.403 144.324 149.185 137.441 151.713 136.254C154.573 134.912 157.788 133.356 161.064 133.265C172.454 132.948 173.581 142.9 173.352 152.124C173.248 156.325 173.02 158.774 171.354 162.575C169.692 166.367 166.121 168.612 164.739 172.139C163.843 174.424 160.161 177.606 158.189 179.063C155.865 180.78 155.552 183.96 152.817 185.244" stroke="black" stroke-width="3" stroke-linecap="round"/>
<path d="M90.686 118.765C92.1092 120.26 93.0323 121.695 94.0479 123.486" stroke="black" stroke-width="3" stroke-linecap="round"/>
<path d="M119.707 70.7796C118.008 71.1132 117.3 80.9913 124.256 74.3712C127 71.7606 125.334 66.3507 121.812 69.0279C114.711 74.4257 126.408 81.1238 126.539 75.8451C126.596 73.5423 121.234 71.9771 121.996 71.996" stroke="black" stroke-width="3" stroke-linecap="round"/>
<path d="M178.983 65.2914C186.523 65.4783 176.803 67.6554 178.897 68.7682" stroke="black" stroke-width="3" stroke-linecap="round"/>
<path d="M126.66 70.9521C132.701 71.8598 122.319 76.6427 119.563 76.5743" stroke="black" stroke-width="3" stroke-linecap="round"/>
</svg>
